<svg width="1024" height="1024" viewBox="0 0 1024 1024" xmlns="http://www.w3.org/2000/svg">
  <path fill="#9b6dff" fill-rule="evenodd" d="
    M 252,750 A 260,260 0 1,1 772,750 Z
    M 312,750 A 200,200 0 1,1 712,750 Z
    M 252,750 Q 150.8,704.7 87,636.1 Q 176.6,608.7 286.8,620 A 260,260 0 0,0 252,750 Z
    M 253.9,718.3 Q 182.8,689 135.3,649.1 Q 196.4,638.2 272.7,648.4 A 260,260 0 0,0 253.9,718.3 Z
    M 286.8,620 Q 221.9,530.2 200.9,438.9 Q 292.2,459.9 382,524.8 A 260,260 0 0,0 286.8,620 Z
    M 304.4,593.5 Q 257.4,532.6 236.2,474.2 Q 294.6,495.4 355.5,542.4 A 260,260 0 0,0 304.4,593.5 Z
    M 382,524.8 Q 370.7,414.6 398.1,325 Q 466.7,388.8 512,490 A 260,260 0 0,0 382,524.8 Z
    M 410.4,510.7 Q 400.2,434.4 411.1,373.3 Q 451,420.8 480.3,491.9 A 260,260 0 0,0 410.4,510.7 Z
    M 512,490 Q 557.3,388.8 625.9,325 Q 653.3,414.6 642,524.8 A 260,260 0 0,0 512,490 Z
    M 543.7,491.9 Q 573,420.8 612.9,373.3 Q 623.8,434.4 613.6,510.7 A 260,260 0 0,0 543.7,491.9 Z
    M 642,524.8 Q 731.8,459.9 823.1,438.9 Q 802.1,530.2 737.2,620 A 260,260 0 0,0 642,524.8 Z
    M 668.5,542.4 Q 729.4,495.4 787.8,474.2 Q 766.6,532.6 719.6,593.5 A 260,260 0 0,0 668.5,542.4 Z
    M 737.2,620 Q 847.4,608.7 937,636.1 Q 873.2,704.7 772,750 A 260,260 0 0,0 737.2,620 Z
    M 751.3,648.4 Q 827.6,638.2 888.7,649.1 Q 841.2,689 770.1,718.3 A 260,260 0 0,0 751.3,648.4 Z
  "/>
</svg>